# xmcd
#
# Track frame offsets: 
#        150
#        7200
#        18225
#        31725
#        46050
#        60900
#        74175
#        93750
#        104250
#        114225
#        128250
#
# Disc length: 1957 seconds
#
# Revision: 0
# Processed by: cddbd v1.5.2PL0 Copyright (c) Steve Scherf et al.
# Submitted via: ExactAudioCopy v0.99pb5
#
DISCID=7c07a30b
DTITLE=Rani mraz - mojoj mami,umesto maturske slike u izlogu
DYEAR=1979
DGENRE=Ballad
TTITLE0=Uvod
TTITLE1=Sve je dobro kad se dobro svrsi
TTITLE2=Drago mi je zbog mog starog
TTITLE3=Jedan Sasa iz voza
TTITLE4=Uticaj rodjaka na moj zivotni put
TTITLE5=Mnogo mi znaci to
TTITLE6=Neki novi klinci
TTITLE7=Stara pesma
TTITLE8=Moj frend ima rock and roll band
TTITLE9=Brakolomac
TTITLE10=Prodaje se prijatelj
EXTD=
EXTT0=
EXTT1=
EXTT2=
EXTT3=
EXTT4=
EXTT5=
EXTT6=
EXTT7=
EXTT8=
EXTT9=
EXTT10=
PLAYORDER=
